# xmcd
#
# Track frame offsets:
#	150
#	17213
#	37679
#	54662
#
# Disc length: 977 seconds
#
# Revision: 0
# Processed by: cddbd v1.5.2PL0 Copyright (c) Steve Scherf et al.
# Submitted via: audiograbber 1.81.03
#
DISCID=2703cf04
DTITLE=Jerry`Leger]p[The`Situation - Selections From Farewell Ghost Town
DYEAR=2006
DGENRE=Blues
TTITLE0=Old Shoes On My Feet
TTITLE1=On Your Own
TTITLE2=See My Baby Run
TTITLE3=Cutting Heads
EXTD=
EXTT0=
EXTT1=
EXTT2=
EXTT3=
PLAYORDER=
